<?xml version="1.0" encoding="UTF-8"?>
<svg id="Layer_2" data-name="Layer 2" xmlns="http://www.w3.org/2000/svg" viewBox="0 0 1156.28 362.2">
  <defs>
    <style>
      .cls-1 {
        fill: #2f180e;
      }

      .cls-2 {
        fill: #c36411;
      }

      .cls-3 {
        fill: #f5deae;
      }

      .cls-4 {
        fill: #b95a0b;
      }

      .cls-5 {
        fill: #c26510;
      }

      .cls-6 {
        fill: #934409;
      }

      .cls-7 {
        fill: #e99a30;
      }
    </style>
  </defs>
  <g id="Layer_2-2" data-name="Layer 2">
    <g>
      <g>
        <path class="cls-7" d="M439.88,235.56c0,31.62-22.48,61.82-63.31,85.02-38.84,22.07-90.51,35.75-145.48,38.49-10.81.53-21.35.81-31.58.81-53.52,0-98.75-7.35-132.11-21.6-36.63-15.63-58.94-39.67-62.83-67.69-4.05-29.2,3.84-61.93,21.41-91.32,2.28-3.8,4.7-7.53,7.29-11.2,2.69-3.82,5.55-7.55,8.58-11.2,6.72-8.11,14.13-15.68,22.19-22.7,14.99-13.04,32.23-24.16,51.56-33.22,6.87-3.22,13.96-6.15,21.28-8.8,28.09-10.19,59.37-16.16,93.3-17.79,59.11-2.84,117.34,18.71,159.74,59.12,31.74,30.26,49.96,67.46,49.96,102.06Z"/>
        <path class="cls-2" d="M437.01,235.32c0,31.21-22.18,61-62.47,83.9-38.34,21.78-89.32,35.28-143.57,37.99-10.67.52-21.07.8-31.16.8-52.82,0-97.46-7.25-130.37-21.31-36.16-15.43-58.17-39.16-62-66.8-1.31-9.45-1.36-19.27-.22-29.23,29.44,56.39,113.85,71.9,200.4,71.9,101.33,0,202.35-48.97,213.33-135.29,10.44,19.05,16.06,38.95,16.06,58.05Z"/>
        <g>
          <path class="cls-5" d="M161.23,235.32c-.04.79-2.51-1.14-3.15-1.59-25.56-18.74-53.35-34.47-82.77-46.85l-.18-.07c-8.58-3.62-17.35-6.94-26.15-9.95-.66-.22-1.42-.49-2.03-.75-1.27-.56-1.8-1.12.96-1.28.15,0,.31-.02.48-.03,46.11-1.45,90.49,22.77,112.84,60.52Z"/>
          <path class="cls-5" d="M262.2,196.13c-11.7-17.9-26.49-33.49-43.55-46.06-8.54-6.3-17.64-11.84-27.21-16.54-20.96-10.32-44.13-16.6-68.37-17.92,14-6.45,29.09-11.71,45.12-15.73,46.99,7.68,89.22,44.67,94.01,96.25Z"/>
          <path class="cls-5" d="M349.49,160.51c-8.49-11.47-17.9-22.39-28.18-32.67-12.32-12.32-25.57-23.38-39.58-33.12,3.57.73,7.12,1.56,10.64,2.48,28.68,9.32,50.74,33.44,57.12,63.31Z"/>
        </g>
        <path class="cls-1" d="M392.66,132.15c-43.08-41.07-102.25-62.97-162.33-60.08-34.48,1.66-66.27,7.72-94.81,18.08-7.43,2.69-14.64,5.67-21.62,8.94-19.64,9.2-37.17,20.51-52.4,33.76-8.19,7.13-15.72,14.83-22.55,23.06-3.07,3.7-5.98,7.5-8.72,11.38-2.63,3.73-5.1,7.53-7.41,11.39C4.96,208.53-3.06,241.79,1.06,271.47c3.95,28.47,26.63,52.9,63.85,68.79,33.9,14.48,79.87,21.95,134.25,21.95,10.39,0,21.11-.28,32.09-.82,55.86-2.79,108.37-16.69,147.84-39.12,41.49-23.58,64.34-54.26,64.34-86.4,0-35.16-18.51-72.97-50.77-103.72ZM292.37,97.21c28.68,9.32,50.74,33.44,57.12,63.31-8.49-11.47-17.9-22.39-28.18-32.67-12.32-12.32-25.57-23.38-39.58-33.12,3.57.73,7.12,1.56,10.64,2.48ZM168.19,99.88c46.99,7.68,89.22,44.67,94.01,96.25-30.4-46.54-81.79-77.39-139.12-80.52,14-6.45,29.09-11.71,45.12-15.73ZM47.91,174.82c.15,0,.31-.02.48-.03,46.11-1.45,90.49,22.77,112.84,60.52-.04.79-2.51-1.14-3.15-1.59-25.56-18.74-53.35-34.47-82.77-46.85l-.18-.07c-8.58-3.62-17.35-6.94-26.15-9.95-.66-.22-1.42-.49-2.03-.75-1.27-.56-1.8-1.12.96-1.28ZM369.83,305.96c-36.97,21.01-86.53,34.05-139.52,36.69-65.63,3.29-120.28-3.51-158.04-19.63-30.94-13.2-49.62-32.43-52.64-54.13-3.72-26.74,4.25-57.17,21.6-84.36,43.67,14.8,85.02,35.6,121.09,64.09,3.38,2.43,8.36,2.54,10.16-1.53,1.34-3.2-.41-7.38-1.57-10.61l-.06-.16c-15.98-41.42-64.34-71.14-114.92-71.47,13.65-15.73,30.3-29.17,49.45-40.13,63.2-2.64,125.34,31.98,155.43,86.79,3.13,5.7,11.8,3.56,11.78-2.94-.14-51.05-34.91-97.02-81.97-113.41,13.05-2.24,26.61-3.7,40.62-4.38,3.22-.16,6.44-.23,9.65-.23,6.01,0,12,.27,17.95.8,37.16,21.87,68.98,52.38,92.48,88.49,2.79,4.29,9.51,2.31,9.42-2.81v-.17c-.11-24.44-10.04-46.6-25.76-63.17,16.26,8.51,31.37,19.25,44.76,32.02,28.56,27.23,44.96,60.09,44.96,90.16,0,25.11-19.48,50-54.85,70.1Z"/>
        <path class="cls-6" d="M221.71,140.67c0,3.51-1.13,6.76-3.06,9.39-8.54-6.3-17.64-11.84-27.21-16.54,2.62-5.24,8.03-8.83,14.28-8.83,8.83,0,15.98,7.15,15.98,15.98Z"/>
        <circle class="cls-4" cx="83.79" cy="246.95" r="7.99"/>
        <circle class="cls-4" cx="225.01" cy="282.47" r="7.99"/>
        <circle class="cls-4" cx="290.42" cy="124.7" r="7.99"/>
        <circle class="cls-6" cx="379.43" cy="270.99" r="7.99"/>
        <circle class="cls-4" cx="359.65" cy="218.67" r="7.99"/>
        <circle class="cls-6" cx="80.11" cy="309.75" r="7.99"/>
      </g>
      <g>
        <path class="cls-1" d="M1156.28,19.25v157.71c0,9.38-7.6,16.98-16.98,16.98h-124.97c-4.9,1.4-10.2,2.12-15.82,2.12-8.98,0-24.62-1.97-36.64-13.95-6.48,5.57-14.48,9.55-23.83,11.76,5.19,9.19,7.81,20.45,7.81,33.67v5.1c0,12.28-2.34,21.9-5.96,29.43,3.94,9.46,4.78,20.01,4.78,30.04,0,1.73,0,3.59,0,5.52-.02,8.99-.05,27.71.67,32.27l2.18,13.83c1.26,7.98-4.9,15.21-12.99,15.22l-14,.02h-251.63v-1.1c-6.33,2.01-13.75,3.22-22.46,3.22-6.58,0-12.67-.7-18.27-2.12h-249.55c-9.84,0-17.82-7.98-17.82-17.82v-92.97c0-3.65-2.96-6.6-6.6-6.6h0c-7.72,0-13.99-6.26-13.99-13.99v-54.39c0-3.26,2.64-5.9,5.9-5.9h0c1.75,0,2.95-1.78,2.26-3.39-3.69-8.57-5.62-18.69-5.62-30.18v-28.17c0-2.99,2.43-5.42,5.42-5.42h0c2.5,0,4.14-2.61,3.05-4.86-4.06-8.33-6.64-18.45-6.64-31.32,0-16.8,3.77-30.73,11.22-41.38,7.2-10.28,21.26-22.55,47.37-22.55,15.84,0,27.2,4.31,35.28,9.99,3.53,2.48,8.25,2.49,11.85.11C460.03,3.66,472.21.14,486.26.14c10.21,0,18.61,1.82,25.48,4.52h0c0-1.32,1.07-2.39,2.39-2.39h146.48c9.31,0,17.68,1.28,25.02,3.84h0c0-2.12,1.72-3.84,3.84-3.84h54.72c16.75,0,30.09,3.55,40.43,10.8,2.69,1.89,6.34,1.8,8.92-.24,10.31-8.17,23.83-12.69,39.74-12.69,10.2,0,18.61,1.82,25.48,4.52h0c0-1.32,1.07-2.39,2.39-2.39h119.13c.52,0,.94.42.94.94h0c0,.66.65,1.1,1.27.87,6.59-2.42,14.45-3.94,23.8-3.94,10.45,0,19.06,1.77,26.14,4.56.62.24,1.29-.2,1.29-.87v-.63c0-.52.42-.94.94-.94h104.67c9.38,0,16.98,7.6,16.98,16.98Z"/>
        <g>
          <path class="cls-3" d="M394.48,125.23v9.8c0,9.3,2.31,13.62,8.51,13.62s7.74-6.41,7.74-13.08c0-13.35-2.51-17.22-16.95-29.3-15.93-13.5-24.13-21.49-24.13-42.33s6.69-38.83,33.49-38.83c28.45,0,32.65,19.4,32.65,35.59v8.14h-25.69v-8.47c0-8.58-1.41-12.83-6.79-12.83-5.02,0-6.64,4.32-6.64,12.33,0,8.52,1.55,12.72,13.25,21.85,20.8,16.34,28.27,25.52,28.27,48.82s-7.57,40.4-35.67,40.4-34.68-16.28-34.68-37.24v-8.48h26.65Z"/>
          <path class="cls-3" d="M522.93,65.22v65.62c0,28.07-13.21,40.11-37.94,40.11s-35.53-12.34-35.53-39.83v-66.63c0-27.31,15.01-39.23,36.79-39.23s36.68,11.72,36.68,39.97ZM476.98,62.15v72.3c0,8.74,3,13.29,9.08,13.29s9.21-4.13,9.21-13.43V61.94c0-8.84-2.45-13.36-9.29-13.36-5.79,0-9,4.18-9,13.57Z"/>
          <path class="cls-3" d="M564.23,27.37v107.72c0,8.25,2.51,12.66,8.71,12.66,6.57,0,8.59-5.02,8.59-12.66V27.37h27.54v105.96c0,25.08-11.52,37.47-36.55,37.47s-35.68-11.99-35.68-37.69V27.37h27.39Z"/>
          <path class="cls-3" d="M652.47,107.33v61.49h-27.17V27.37h35.3c23.71,0,35.42,10.42,35.42,35.15v5.09c0,20.16-8.05,26.15-14.12,29.02,8.8,4.25,12.93,10.72,12.93,30.46,0,13.66-.21,34.31.97,41.74h-26.32c-1.76-6.39-1.63-24.81-1.63-42.87,0-15.92-1.82-18.63-12.18-18.63h-3.21ZM652.54,85.9h3.37c9.09,0,12.79-2.87,12.79-16.04v-6.83c0-9.49-1.91-14.22-11.92-14.22h-4.25v37.09Z"/>
          <path class="cls-3" d="M710.73,27.37h33.45c29.14,0,39.2,13.29,39.2,42.57v53.17c0,24.38-5.16,45.71-37.35,45.71h-35.3V27.37ZM737.97,146.9h5.31c10.66,0,12.43-6.96,12.43-17.99v-63.35c0-10.44-2.34-16.13-12.65-16.13h-5.09v97.47Z"/>
          <path class="cls-3" d="M869.95,65.22v65.62c0,28.07-13.21,40.11-37.94,40.11s-35.53-12.34-35.53-39.83v-66.63c0-27.31,15.01-39.23,36.79-39.23s36.68,11.72,36.68,39.97ZM823.99,62.15v72.3c0,8.74,3,13.29,9.08,13.29s9.21-4.13,9.21-13.43V61.94c0-8.84-2.45-13.36-9.29-13.36-5.79,0-9,4.18-9,13.57Z"/>
          <path class="cls-3" d="M911.24,27.37v107.72c0,8.25,2.51,12.66,8.71,12.66,6.57,0,8.59-5.02,8.59-12.66V27.37h27.54v105.96c0,25.08-11.51,37.47-36.55,37.47s-35.68-11.99-35.68-37.69V27.37h27.39Z"/>
          <path class="cls-3" d="M1042.53,168.83h-20.45c-.64-2.47-1.06-7.51-1.27-10.47-4.47,9.93-13.56,12.59-22.3,12.59-22.02,0-28.2-16.38-28.2-39.49v-66.56c0-21.69,8.98-39.65,35.97-39.65,32.58,0,35.85,23.7,35.85,37.97v6.37h-27.39v-7.79c0-6.86-.84-13.21-8.39-13.21-6.23,0-8.53,4.55-8.53,13.77v72.51c0,9.63,3.11,13.16,8.53,13.16,6.62,0,8.87-5.15,8.87-16.78v-20.29h-9.36v-22.96h36.68v80.82Z"/>
          <path class="cls-3" d="M1058.8,27.37h27.24v54.44h17.74V27.37h27.39v141.45h-27.39v-63.02h-17.74v63.02h-27.24V27.37Z"/>
          <path class="cls-3" d="M385.89,216.45h-20.6v-24.06h68.5v24.06h-20.73v117.4h-27.17v-117.4Z"/>
          <path class="cls-3" d="M470.59,272.35v61.49h-27.17v-141.45h35.3c23.71,0,35.42,10.42,35.42,35.15v5.09c0,20.16-8.05,26.15-14.12,29.02,8.8,4.25,12.93,10.72,12.93,30.46,0,13.66-.21,34.31.97,41.74h-26.32c-1.76-6.39-1.63-24.81-1.63-42.87,0-15.92-1.82-18.63-12.18-18.63h-3.21ZM470.66,250.91h3.37c9.09,0,12.79-2.87,12.79-16.04v-6.83c0-9.49-1.91-14.22-11.92-14.22h-4.25v37.09Z"/>
          <path class="cls-3" d="M553.71,300.18l-3.48,33.67h-27.74l20-141.45h40.57l20.48,141.45h-28.3l-3.9-33.67h-17.62ZM569.02,276.18c-2.01-18.1-4.83-45.63-6.15-59.18h-1.07c-.49,9.86-3.84,41.69-5.72,59.18h12.94Z"/>
          <path class="cls-3" d="M682.13,287.67v7.66c0,17.85-3.29,40.63-35.71,40.63-23.95,0-34.36-12.76-34.36-38.76v-69.36c0-24.6,12.27-37.57,34.93-37.57,29.88,0,34.73,19.67,34.73,38.18v8.88h-27.39v-12.07c0-7.79-1.66-11.73-7.34-11.73s-7.41,3.72-7.41,11.73v74.81c0,7.55,1.26,12.7,7.4,12.7s7.63-4.33,7.63-13.34v-11.75h27.53Z"/>
          <path class="cls-3" d="M693.98,192.39h26.37v61.63h.43c4.48-13.31,13.78-42.25,20.16-61.63h30l-23.73,54.76,24.62,86.69h-29.43l-13.97-59.65-8.08,18.05v41.61h-26.37v-141.45Z"/>
          <path class="cls-3" d="M835.25,271.37h-29.16v38.56h34.19l-3.27,23.92h-58.16v-141.45h57.95v24.06h-30.71v31h29.16v23.92Z"/>
          <path class="cls-3" d="M877.17,272.35v61.49h-27.17v-141.45h35.3c23.71,0,35.42,10.42,35.42,35.15v5.09c0,20.16-8.05,26.15-14.12,29.02,8.8,4.25,12.93,10.72,12.93,30.46,0,13.66-.21,34.31.97,41.74h-26.32c-1.76-6.39-1.63-24.81-1.63-42.87,0-15.92-1.82-18.63-12.18-18.63h-3.21ZM877.24,250.91h3.37c9.09,0,12.79-2.87,12.79-16.04v-6.83c0-9.49-1.91-14.22-11.92-14.22h-4.25v37.09Z"/>
        </g>
      </g>
    </g>
  </g>
</svg>