<?xml version="1.0" encoding="UTF-8"?>
<svg id="Layer_2" data-name="Layer 2" xmlns="http://www.w3.org/2000/svg" viewBox="0 0 445.28 362.2">
  <defs>
    <style>
      .cls-1 {
        fill: #2f180e;
      }

      .cls-2 {
        fill: #c36411;
      }

      .cls-3 {
        fill: #f5deae;
      }

      .cls-4 {
        fill: #b95a0b;
      }

      .cls-5 {
        fill: #c26510;
      }

      .cls-6 {
        fill: #934409;
      }

      .cls-7 {
        fill: #e99a30;
      }
    </style>
  </defs>
  <g id="Layer_2-2" data-name="Layer 2">
    <g>
      <g>
        <path class="cls-7" d="M439.88,235.56c0,31.62-22.48,61.82-63.31,85.02-38.84,22.07-90.51,35.75-145.48,38.49-10.81.53-21.35.81-31.58.81-53.52,0-98.75-7.35-132.11-21.6-36.63-15.63-58.94-39.67-62.83-67.69-4.05-29.2,3.84-61.93,21.41-91.32,2.28-3.8,4.7-7.53,7.29-11.2,2.69-3.82,5.55-7.55,8.58-11.2,6.72-8.11,14.13-15.68,22.19-22.7,14.99-13.04,32.23-24.16,51.56-33.22,6.87-3.22,13.96-6.15,21.28-8.8,28.09-10.19,59.37-16.16,93.3-17.79,59.11-2.84,117.34,18.71,159.74,59.12,31.74,30.26,49.96,67.46,49.96,102.06Z"/>
        <path class="cls-2" d="M437.01,235.32c0,31.21-22.18,61-62.47,83.9-38.34,21.78-89.32,35.28-143.57,37.99-10.67.52-21.07.8-31.16.8-52.82,0-97.46-7.25-130.37-21.31-36.16-15.43-58.17-39.16-62-66.8-1.31-9.45-1.36-19.27-.22-29.23,29.44,56.39,113.85,71.9,200.4,71.9,101.33,0,202.35-48.97,213.33-135.29,10.44,19.05,16.06,38.95,16.06,58.05Z"/>
        <g>
          <path class="cls-5" d="M161.23,235.32c-.04.79-2.51-1.14-3.15-1.59-25.56-18.74-53.35-34.47-82.77-46.85l-.18-.07c-8.58-3.62-17.35-6.94-26.15-9.95-.66-.22-1.42-.49-2.03-.75-1.27-.56-1.8-1.12.96-1.28.15,0,.31-.02.48-.03,46.11-1.45,90.49,22.77,112.84,60.52Z"/>
          <path class="cls-5" d="M262.2,196.13c-11.7-17.9-26.49-33.49-43.55-46.06-8.54-6.3-17.64-11.84-27.21-16.54-20.96-10.32-44.13-16.6-68.37-17.92,14-6.45,29.09-11.71,45.12-15.73,46.99,7.68,89.22,44.67,94.01,96.25Z"/>
          <path class="cls-5" d="M349.49,160.51c-8.49-11.47-17.9-22.39-28.18-32.67-12.32-12.32-25.57-23.38-39.58-33.12,3.57.73,7.12,1.56,10.64,2.48,28.68,9.32,50.74,33.44,57.12,63.31Z"/>
        </g>
        <path class="cls-1" d="M392.66,132.15c-43.08-41.07-102.25-62.97-162.33-60.08-34.48,1.66-66.27,7.72-94.81,18.08-7.43,2.69-14.64,5.67-21.62,8.94-19.64,9.2-37.17,20.51-52.4,33.76-8.19,7.13-15.72,14.83-22.55,23.06-3.07,3.7-5.98,7.5-8.72,11.38-2.63,3.73-5.1,7.53-7.41,11.39C4.96,208.53-3.06,241.79,1.06,271.47c3.95,28.47,26.63,52.9,63.85,68.79,33.9,14.48,79.87,21.95,134.25,21.95,10.39,0,21.11-.28,32.09-.82,55.86-2.79,108.37-16.69,147.84-39.12,41.49-23.58,64.34-54.26,64.34-86.4,0-35.16-18.51-72.97-50.77-103.72ZM292.37,97.21c28.68,9.32,50.74,33.44,57.12,63.31-8.49-11.47-17.9-22.39-28.18-32.67-12.32-12.32-25.57-23.38-39.58-33.12,3.57.73,7.12,1.56,10.64,2.48ZM168.19,99.88c46.99,7.68,89.22,44.67,94.01,96.25-30.4-46.54-81.79-77.39-139.12-80.52,14-6.45,29.09-11.71,45.12-15.73ZM47.91,174.82c.15,0,.31-.02.48-.03,46.11-1.45,90.49,22.77,112.84,60.52-.04.79-2.51-1.14-3.15-1.59-25.56-18.74-53.35-34.47-82.77-46.85l-.18-.07c-8.58-3.62-17.35-6.94-26.15-9.95-.66-.22-1.42-.49-2.03-.75-1.27-.56-1.8-1.12.96-1.28ZM369.83,305.96c-36.97,21.01-86.53,34.05-139.52,36.69-65.63,3.29-120.28-3.51-158.04-19.63-30.94-13.2-49.62-32.43-52.64-54.13-3.72-26.74,4.25-57.17,21.6-84.36,43.67,14.8,85.02,35.6,121.09,64.09,3.38,2.43,8.36,2.54,10.16-1.53,1.34-3.2-.41-7.38-1.57-10.61l-.06-.16c-15.98-41.42-64.34-71.14-114.92-71.47,13.65-15.73,30.3-29.17,49.45-40.13,63.2-2.64,125.34,31.98,155.43,86.79,3.13,5.7,11.8,3.56,11.78-2.94-.14-51.05-34.91-97.02-81.97-113.41,13.05-2.24,26.61-3.7,40.62-4.38,3.22-.16,6.44-.23,9.65-.23,6.01,0,12,.27,17.95.8,37.16,21.87,68.98,52.38,92.48,88.49,2.79,4.29,9.51,2.31,9.42-2.81v-.17c-.11-24.44-10.04-46.6-25.76-63.17,16.26,8.51,31.37,19.25,44.76,32.02,28.56,27.23,44.96,60.09,44.96,90.16,0,25.11-19.48,50-54.85,70.1Z"/>
        <path class="cls-6" d="M221.71,140.67c0,3.51-1.13,6.76-3.06,9.39-8.54-6.3-17.64-11.84-27.21-16.54,2.62-5.24,8.03-8.83,14.28-8.83,8.83,0,15.98,7.15,15.98,15.98Z"/>
        <circle class="cls-4" cx="83.79" cy="246.95" r="7.99"/>
        <circle class="cls-4" cx="225.01" cy="282.47" r="7.99"/>
        <circle class="cls-4" cx="290.42" cy="124.7" r="7.99"/>
        <circle class="cls-6" cx="379.43" cy="270.99" r="7.99"/>
        <circle class="cls-4" cx="359.65" cy="218.67" r="7.99"/>
        <circle class="cls-6" cx="80.11" cy="309.75" r="7.99"/>
      </g>
    </g>
  </g>
</svg>