<?xml version="1.0" encoding="UTF-8"?>
<svg id="Layer_2" data-name="Layer 2" xmlns="http://www.w3.org/2000/svg" viewBox="0 0 535.21 535.22">
  <defs>
    <style>
      .cls-1 {
        fill: #fff;
      }
    </style>
  </defs>
  <g id="Layer_1-2" data-name="Layer 1">
    <g>
      <path class="cls-1" d="M267.6,0C119.81,0,0,119.82,0,267.61s119.81,267.61,267.6,267.61,267.61-119.82,267.61-267.61S415.4,0,267.6,0ZM353.07,469.98c-27.04,11.44-55.8,17.24-85.47,17.24s-58.42-5.8-85.46-17.24c-26.15-11.06-49.64-26.9-69.82-47.09-20.18-20.18-36.02-43.67-47.08-69.81-11.44-27.05-17.24-55.8-17.24-85.47s5.8-58.42,17.24-85.47c11.06-26.14,26.9-49.63,47.08-69.82,20.18-20.18,43.67-36.02,69.82-47.08,27.04-11.44,55.8-17.24,85.46-17.24s58.43,5.8,85.47,17.24c26.15,11.06,49.64,26.9,69.82,47.08,20.18,20.19,36.02,43.68,47.08,69.82,11.44,27.05,17.24,55.8,17.24,85.47s-5.8,58.42-17.24,85.47c-11.06,26.14-26.9,49.63-47.08,69.81-20.18,20.19-43.67,36.03-69.82,47.09Z"/>
      <path class="cls-1" d="M274.78,333.52h-.43c-12.01,0-21.74-9.74-21.74-21.74v-7.82c0-9.93,2.01-17.74,6.02-23.43,4.01-5.69,12.81-13.8,26.39-24.31,20.73-15.91,31.1-32.77,31.1-50.59,0-13.43-4.05-24.09-12.15-31.97-8.1-7.88-18.65-11.83-31.64-11.83-25.03,0-41.51,14.41-49.45,43.22-2.97,10.76-13.75,17.4-24.74,15.44l-5.48-.98c-12.56-2.25-20.5-14.78-17.16-27.1,5.49-20.26,15.61-36.91,30.37-49.96,20.07-17.74,44.13-26.61,72.16-26.61s50.95,8.29,69.2,24.86c18.25,16.57,27.37,37.19,27.37,61.86,0,12.26-2.52,23.91-7.56,34.93-5.04,11.02-10.77,19.56-17.19,25.62-6.43,6.06-20,16.68-40.73,31.86-5.84,4.24-9.56,8.36-11.17,12.37-.64,1.61-1.17,3.97-1.58,7.08-1.43,10.89-10.6,19.09-21.58,19.09ZM304.07,386.36v11.26c0,12.01-9.74,21.74-21.74,21.74h-7.97c-12.01,0-21.74-9.74-21.74-21.74v-11.26c0-12.01,9.74-21.74,21.74-21.74h7.97c12.01,0,21.74,9.74,21.74,21.74Z"/>
    </g>
  </g>
</svg>